#N canvas 261 40 950 663 10;
#X obj 182 403 *~;
#X obj 122 422 +~;
#X floatatom 204 373 0 0 1000 0 - - -;
#X text 69 296 carrier;
#X text 58 309 frequency;
#X text 218 309 frequency;
#X text 221 297 modulation;
#X obj 122 474 osc~;
#X text 211 408 index;
#X text 212 395 modulation;
#X obj 280 630 dac~;
#X obj 216 35 OSCroute /a /b /c /d /e /f;
#X text 416 618 <- turn on volume;
#X obj 342 602 output~;
#X floatatom 122 302 0 -125 -24 0 - - -;
#X floatatom 179 305 5 0 0 0 - - -;
#X obj 104 86 nano/map;
#X obj 434 401 *~;
#X obj 374 420 +~;
#X floatatom 456 371 0 0 141 0 - - -;
#X text 321 294 carrier;
#X text 310 307 frequency;
#X text 470 307 frequency;
#X text 473 295 modulation;
#X text 463 406 index;
#X text 464 393 modulation;
#X floatatom 374 300 0 -125 -24 0 - - -;
#X floatatom 434 301 5 0 0 0 - - -;
#X obj 691 400 *~;
#X obj 631 419 +~;
#X floatatom 715 373 0 0 141 0 - - -;
#X text 578 293 carrier;
#X text 567 306 frequency;
#X text 727 306 frequency;
#X text 730 294 modulation;
#X text 720 405 index;
#X text 721 392 modulation;
#X floatatom 631 299 0 -125 -24 0 - - -;
#X floatatom 696 291 5 0 0 0 - - -;
#X text 640 24 NANO / EBA / UFRJ;
#X obj 182 343 phasor~;
#X obj 434 341 phasor~;
#X obj 691 340 phasor~;
#X obj 631 471 phasor~;
#X obj 374 472 phasor~;
#X obj 122 10 dumpOSC 8000;
#X msg 31 128 142;
#X msg 30 155 233;
#X obj 28 90 loadbang;
#X text 460 75 low;
#X text 547 78 high;
#X obj 373 94 nano/map;
#X obj 616 88 nano/map;
#X msg 30 183 2;
#X msg 29 206 31;
#X msg 27 236 36;
#X obj 4 390 dsp;
#X obj -12 323 tgl 15 0 empty empty empty 17 7 0 10 -262144 -1 -1 1
1;
#X connect 0 0 1 1;
#X connect 1 0 7 0;
#X connect 2 0 0 1;
#X connect 7 0 10 0;
#X connect 7 0 10 1;
#X connect 11 1 26 0;
#X connect 11 3 30 0;
#X connect 11 4 2 0;
#X connect 11 4 16 0;
#X connect 11 4 51 0;
#X connect 11 4 52 0;
#X connect 11 5 19 0;
#X connect 11 6 15 0;
#X connect 11 6 27 0;
#X connect 14 0 1 0;
#X connect 15 0 40 0;
#X connect 16 0 14 0;
#X connect 16 0 2 0;
#X connect 17 0 18 1;
#X connect 18 0 44 0;
#X connect 19 0 17 1;
#X connect 26 0 18 0;
#X connect 27 0 41 0;
#X connect 28 0 29 1;
#X connect 29 0 43 0;
#X connect 30 0 28 1;
#X connect 37 0 29 0;
#X connect 38 0 42 0;
#X connect 40 0 0 0;
#X connect 41 0 17 0;
#X connect 42 0 28 0;
#X connect 45 0 11 0;
#X connect 46 0 16 1;
#X connect 47 0 16 2;
#X connect 48 0 46 0;
#X connect 48 0 47 0;
#X connect 48 0 53 0;
#X connect 48 0 54 0;
#X connect 48 0 55 0;
#X connect 48 0 57 0;
#X connect 51 0 26 0;
#X connect 51 0 30 0;
#X connect 52 0 38 0;
#X connect 52 0 37 0;
#X connect 53 0 16 3;
#X connect 54 0 16 4;
#X connect 55 0 15 0;
#X connect 57 0 56 0;
